<?xml version="1.0" encoding="iso-8859-1"?>
<!-- Generator: Adobe Illustrator 19.0.0, SVG Export Plug-In . SVG Version: 6.00 Build 0)  -->
<svg version="1.1" id="Layer_1" xmlns="http://www.w3.org/2000/svg" xmlns:xlink="http://www.w3.org/1999/xlink" x="0px" y="0px"
	 viewBox="0 0 323.162 323.162" style="enable-background:new 0 0 323.162 323.162;" xml:space="preserve">
<g id="XMLID_1365_">
	
		<line id="XMLID_1366_" style="fill:none;stroke:#5FD2DB;stroke-width:20;stroke-miterlimit:10;" x1="161.581" y1="3.787" x2="161.581" y2="46.787"/>
	<circle id="XMLID_1367_" style="fill:#FF5959;" cx="161.581" cy="60.787" r="30.052"/>
	<path id="XMLID_596_" style="fill:#FFFEB9;" d="M289.609,275.322H33.554V103.295c0-15.116,12.254-27.37,27.37-27.37H262.24
		c15.116,0,27.37,12.254,27.37,27.37L289.609,275.322L289.609,275.322z"/>
	<g id="XMLID_1368_">
		<g id="XMLID_1369_">
			<circle id="XMLID_595_" style="fill:#FFE165;" cx="281.304" cy="260.239" r="23.944"/>
			<circle id="XMLID_594_" style="fill:#FFE165;" cx="233.415" cy="260.239" r="23.944"/>
			<circle id="XMLID_593_" style="fill:#FFE165;" cx="185.526" cy="260.239" r="23.944"/>
			<circle id="XMLID_592_" style="fill:#FFE165;" cx="137.637" cy="260.239" r="23.944"/>
			<circle id="XMLID_591_" style="fill:#FFE165;" cx="89.748" cy="260.239" r="23.944"/>
			<circle id="XMLID_590_" style="fill:#FFE165;" cx="41.859" cy="260.239" r="23.944"/>
		</g>
		<path id="XMLID_588_" style="fill:#FFE165;" d="M48.753,310.182H274.41c17.031,0,30.838,8.763,30.838-8.269v-41.675H17.915v41.675
			C17.915,318.945,31.721,310.182,48.753,310.182z"/>
	</g>
	<g id="XMLID_1372_">
		<path id="XMLID_1371_" style="fill:#5FD2DB;" d="M301.312,319.375H21.851C9.783,319.375,0,309.592,0,297.524l0,0
			c0-12.068,9.783-21.851,21.851-21.851h279.46c12.068,0,21.851,9.783,21.851,21.851l0,0
			C323.163,309.592,313.38,319.375,301.312,319.375z"/>
	</g>
	<g id="XMLID_1373_">
		<path id="XMLID_1374_" style="fill:#FF5959;" d="M185.008,75.925c-0.136,1.049-0.213,2.114-0.213,3.198v72.481
			c0,13.719,11.225,24.945,24.945,24.945l0,0c13.72,0,24.945-11.226,24.945-24.945v-72.48c0-1.084-0.078-2.15-0.214-3.198
			L185.008,75.925L185.008,75.925z"/>
		<path id="XMLID_1375_" style="fill:#FF5959;" d="M136.636,75.925v37.772c0,13.72,11.225,24.945,24.945,24.945l0,0
			c13.72,0,24.945-11.225,24.945-24.945V75.925H136.636z"/>
		<path id="XMLID_1376_" style="fill:#FF5959;" d="M88.478,75.925v65.205c0,13.72,11.225,24.945,24.945,24.945
			s24.945-11.225,24.945-24.945V75.925H88.478z"/>
	</g>
	<path id="XMLID_1377_" style="fill:#FF5959;" d="M289.609,112.581v-9.287c0-15.116-12.254-27.37-27.37-27.37H60.923
		c-15.116,0-27.37,12.254-27.37,27.37v9.287H289.609z"/>
</g>
<g>
</g>
<g>
</g>
<g>
</g>
<g>
</g>
<g>
</g>
<g>
</g>
<g>
</g>
<g>
</g>
<g>
</g>
<g>
</g>
<g>
</g>
<g>
</g>
<g>
</g>
<g>
</g>
<g>
</g>
</svg>
